<?xml version="1.0" encoding="utf-8"?>
<!-- Generator: Adobe Illustrator 21.0.0, SVG Export Plug-In . SVG Version: 6.00 Build 0)  -->
<svg version="1.1" id="Layer_1" xmlns="http://www.w3.org/2000/svg" xmlns:xlink="http://www.w3.org/1999/xlink" x="0px" y="0px"
	 viewBox="0 0 259 157" style="enable-background:new 0 0 259 157;" xml:space="preserve">
<style type="text/css">
	.st0{fill:none;stroke:#000000;stroke-miterlimit:10;}
</style>
<title>email</title>
<g>
	<path class="st0" d="M43.5,29.6L33.3,62.2h-1.4l-1.2-19.3h-0.1l-9.5,19.3h-1.4l3.7-32.6l3.4-0.6l-3.6,24h0.1l8.3-16.8h1L33.6,53
		h0.1l6.7-24L43.5,29.6z"/>
	<path class="st0" d="M53.5,36.6H62c4.2,0,7.1,2,6,6.8c-0.7,3.1-3.4,6.1-6.6,7l4,10.1l-3.2,1.7l-4-11.3h-4.7l-2.3,10.7h-3.2
		L53.5,36.6z M58.5,48c3.2,0,5.6-1.8,6.2-4.6c0.5-2.3-0.5-3.9-3.4-3.9h-5.2L54.3,48H58.5z"/>
	<path class="st0" d="M79.7,58.7h3.5l4.1-19.2h-3.5l0.6-2.9h10.3l-0.6,2.9h-3.6l-4.1,19.2H90l-0.6,2.9H79.1L79.7,58.7z"/>
	<path class="st0" d="M116.2,39.5h-6.9l0.6-2.9h16.9l-0.6,2.9h-6.8l-4.7,22.1h-3.2L116.2,39.5z"/>
	<path class="st0" d="M140.3,36.6h15.6l-0.6,2.9h-12.4l-1.6,7.5h10.2l-0.6,2.9h-10.2l-1.9,8.9h12.4l-0.6,2.9H135L140.3,36.6z"/>
	<path class="st0" d="M210.9,29.6h4l-5.9,32h-3.4l5-26.7h-0.1L201.7,51l-2.1-16.1h-0.1l-6.3,26.7h-3.4l7.8-32h4l1.7,13.6L210.9,29.6
		z"/>
	<path class="st0" d="M226.7,36.6h15.6l-0.6,2.9h-12.4l-1.6,7.5H238l-0.6,2.9h-10.2l-1.9,8.9h12.4l-0.6,2.9h-15.6L226.7,36.6z"/>
	<path class="st0" d="M24.4,109.3l-4.8,10.5l-3-0.9l14.9-31.8h3.8l1.3,31.8l-3.4,0.9l-0.2-10.5H24.4z M32.6,91.5L32.6,91.5l-6.8,15
		H33L32.6,91.5z"/>
	<path class="st0" d="M52.4,94.2h4l5.2,21.1l0.1-0.1l1.1-6.5l3.1-14.5h3.2l-5.3,25h-4l-5.2-21.1l-0.1,0.1l-1.1,6.5l-3.1,14.4h-3.2
		L52.4,94.2z"/>
	<path class="st0" d="M113,87.2h15.6l-0.6,2.9h-12.4l-2.3,10.6h10.2l-0.6,2.9h-10.2l-2.7,12.8h12.4l-0.6,2.9h-15.6L113,87.2z"/>
	<path class="st0" d="M140.6,99L140.6,99l-5,20.3h-3.4l6.3-25h4.2l2.2,10.8l6.8-10.8h4.2l-4.3,25h-3.4l3.7-20.3h-0.1l-8.4,13.2
		L140.6,99z"/>
	<path class="st0" d="M167.7,112.4l-3.9,7.4l-2.9-1.2l13.1-24.5h4.1l2.6,24.5l-3.4,1.2l-0.7-7.4H167.7z M175.2,97.9l-6,11.6h7.1
		L175.2,97.9z"/>
	<path class="st0" d="M194.9,116.3h3.5l4.1-19.2H199l0.6-2.9h10.3l-0.6,2.9h-3.6l-4.1,19.2h3.6l-0.6,2.9h-10.3L194.9,116.3z"/>
	<path class="st0" d="M227.3,94.2h3.2l-4.7,22.1H239l-0.6,2.9H222L227.3,94.2z"/>
</g>
</svg>
